<svg xmlns="http://www.w3.org/2000/svg" width="1200" height="660" viewBox="0 0 1200 660">
  <rect width="1200" height="660" fill="#ffffff"/>
  <text x="46.0" y="52.0" font-family="Virgil, Virgil GS, Excalifont, Comic Sans MS, Bradley Hand, cursive" font-size="25" fill="#1e1e1e" text-anchor="start" font-weight="normal">System architecture</text>
  <text x="46.0" y="78.0" font-family="Virgil, Virgil GS, Excalifont, Comic Sans MS, Bradley Hand, cursive" font-size="15" fill="#5c5c5c" text-anchor="start" font-weight="normal">six services, and what talks to what</text>
  <rect x="60.0" y="185.0" width="250.0" height="125.0" rx="6" fill="#f3f0ff"/>
  <path d="M60.1,184.8 C142.8,183.9 227.1,183.6 309.3,185.0" fill="none" stroke="#1e1e1e" stroke-width="1.7" stroke-linecap="round"/>
  <path d="M59.9,185.5 C141.9,184.8 225.3,183.7 309.4,184.6" fill="none" stroke="#1e1e1e" stroke-width="1.7" stroke-linecap="round"/>
  <path d="M310.8,184.3 C310.4,228.1 310.2,268.0 310.6,309.7" fill="none" stroke="#1e1e1e" stroke-width="1.7" stroke-linecap="round"/>
  <path d="M309.5,185.1 C308.9,225.4 309.4,269.3 310.2,309.8" fill="none" stroke="#1e1e1e" stroke-width="1.7" stroke-linecap="round"/>
  <path d="M310.3,309.9 C226.8,308.6 141.9,309.1 59.7,310.1" fill="none" stroke="#1e1e1e" stroke-width="1.7" stroke-linecap="round"/>
  <path d="M309.6,310.1 C226.5,309.4 144.3,310.6 60.0,310.6" fill="none" stroke="#1e1e1e" stroke-width="1.7" stroke-linecap="round"/>
  <path d="M59.9,310.4 C60.7,267.7 61.5,225.4 59.4,185.0" fill="none" stroke="#1e1e1e" stroke-width="1.7" stroke-linecap="round"/>
  <path d="M60.6,309.7 C58.5,268.9 60.8,226.9 60.3,185.2" fill="none" stroke="#1e1e1e" stroke-width="1.7" stroke-linecap="round"/>
  <text x="185.0" y="212.0" font-family="Virgil, Virgil GS, Excalifont, Comic Sans MS, Bradley Hand, cursive" font-size="18" fill="#1e1e1e" text-anchor="middle" font-weight="bold">React viewer</text>
  <text x="185.0" y="236.0" font-family="Virgil, Virgil GS, Excalifont, Comic Sans MS, Bradley Hand, cursive" font-size="14" fill="#5c5c5c" text-anchor="middle" font-weight="normal">dashboards, in</text>
  <text x="185.0" y="257.0" font-family="Virgil, Virgil GS, Excalifont, Comic Sans MS, Bradley Hand, cursive" font-size="14" fill="#5c5c5c" text-anchor="middle" font-weight="normal">the browser</text>
  <rect x="410.0" y="185.0" width="250.0" height="125.0" rx="6" fill="#e7f5ff"/>
  <path d="M410.0,185.3 C493.6,184.9 577.8,186.4 659.3,185.3" fill="none" stroke="#1e1e1e" stroke-width="1.7" stroke-linecap="round"/>
  <path d="M409.8,185.3 C493.8,186.6 577.7,184.3 659.2,184.9" fill="none" stroke="#1e1e1e" stroke-width="1.7" stroke-linecap="round"/>
  <path d="M659.4,184.6 C658.9,225.4 658.6,269.2 659.8,310.6" fill="none" stroke="#1e1e1e" stroke-width="1.7" stroke-linecap="round"/>
  <path d="M660.5,185.6 C658.7,226.5 660.2,269.6 659.6,309.9" fill="none" stroke="#1e1e1e" stroke-width="1.7" stroke-linecap="round"/>
  <path d="M659.5,309.6 C576.2,311.2 494.8,308.9 409.6,310.0" fill="none" stroke="#1e1e1e" stroke-width="1.7" stroke-linecap="round"/>
  <path d="M659.8,310.1 C577.0,309.2 491.7,309.7 410.7,310.3" fill="none" stroke="#1e1e1e" stroke-width="1.7" stroke-linecap="round"/>
  <path d="M410.6,310.4 C410.0,268.7 410.6,225.2 410.6,185.5" fill="none" stroke="#1e1e1e" stroke-width="1.7" stroke-linecap="round"/>
  <path d="M409.3,309.3 C409.7,268.0 408.7,227.1 409.5,184.5" fill="none" stroke="#1e1e1e" stroke-width="1.7" stroke-linecap="round"/>
  <text x="535.0" y="212.0" font-family="Virgil, Virgil GS, Excalifont, Comic Sans MS, Bradley Hand, cursive" font-size="18" fill="#1e1e1e" text-anchor="middle" font-weight="bold">FastAPI</text>
  <text x="535.0" y="236.0" font-family="Virgil, Virgil GS, Excalifont, Comic Sans MS, Bradley Hand, cursive" font-size="14" fill="#5c5c5c" text-anchor="middle" font-weight="normal">the API: auth, queries,</text>
  <text x="535.0" y="257.0" font-family="Virgil, Virgil GS, Excalifont, Comic Sans MS, Bradley Hand, cursive" font-size="14" fill="#5c5c5c" text-anchor="middle" font-weight="normal">data serving</text>
  <rect x="810.0" y="60.0" width="260.0" height="105.0" rx="6" fill="#ebfbee"/>
  <path d="M809.4,59.8 C896.2,58.6 981.7,58.9 1069.2,60.6" fill="none" stroke="#1e1e1e" stroke-width="1.7" stroke-linecap="round"/>
  <path d="M809.8,59.4 C897.0,58.9 982.5,59.5 1070.6,60.8" fill="none" stroke="#1e1e1e" stroke-width="1.7" stroke-linecap="round"/>
  <path d="M1069.7,59.6 C1069.9,94.9 1068.7,128.7 1070.5,164.5" fill="none" stroke="#1e1e1e" stroke-width="1.7" stroke-linecap="round"/>
  <path d="M1070.1,59.2 C1068.5,96.4 1070.1,128.9 1070.0,165.8" fill="none" stroke="#1e1e1e" stroke-width="1.7" stroke-linecap="round"/>
  <path d="M1069.5,165.4 C984.5,165.6 895.9,164.6 810.1,165.4" fill="none" stroke="#1e1e1e" stroke-width="1.7" stroke-linecap="round"/>
  <path d="M1070.6,165.5 C982.8,164.1 897.7,166.6 810.5,165.4" fill="none" stroke="#1e1e1e" stroke-width="1.7" stroke-linecap="round"/>
  <path d="M809.2,164.6 C809.1,130.1 809.5,93.5 809.6,60.3" fill="none" stroke="#1e1e1e" stroke-width="1.7" stroke-linecap="round"/>
  <path d="M810.7,164.8 C811.5,129.8 811.4,96.6 809.6,59.6" fill="none" stroke="#1e1e1e" stroke-width="1.7" stroke-linecap="round"/>
  <text x="940.0" y="87.0" font-family="Virgil, Virgil GS, Excalifont, Comic Sans MS, Bradley Hand, cursive" font-size="18" fill="#1e1e1e" text-anchor="middle" font-weight="bold">MongoDB</text>
  <text x="940.0" y="111.0" font-family="Virgil, Virgil GS, Excalifont, Comic Sans MS, Bradley Hand, cursive" font-size="14" fill="#5c5c5c" text-anchor="middle" font-weight="normal">projects, dashboards,</text>
  <text x="940.0" y="132.0" font-family="Virgil, Virgil GS, Excalifont, Comic Sans MS, Bradley Hand, cursive" font-size="14" fill="#5c5c5c" text-anchor="middle" font-weight="normal">users, runs, files</text>
  <rect x="810.0" y="200.0" width="260.0" height="105.0" rx="6" fill="#fff9db"/>
  <path d="M810.5,200.0 C895.7,199.1 983.7,201.3 1070.2,200.5" fill="none" stroke="#1e1e1e" stroke-width="1.7" stroke-linecap="round"/>
  <path d="M810.4,200.0 C895.3,200.5 984.6,200.9 1069.5,200.5" fill="none" stroke="#1e1e1e" stroke-width="1.7" stroke-linecap="round"/>
  <path d="M1069.8,200.7 C1069.5,236.0 1071.5,269.7 1070.4,304.5" fill="none" stroke="#1e1e1e" stroke-width="1.7" stroke-linecap="round"/>
  <path d="M1069.4,200.5 C1068.8,233.9 1071.3,271.0 1070.8,305.3" fill="none" stroke="#1e1e1e" stroke-width="1.7" stroke-linecap="round"/>
  <path d="M1070.8,305.2 C982.9,305.2 895.5,303.4 810.0,305.7" fill="none" stroke="#1e1e1e" stroke-width="1.7" stroke-linecap="round"/>
  <path d="M1069.6,304.7 C983.1,306.2 897.7,304.1 809.6,305.1" fill="none" stroke="#1e1e1e" stroke-width="1.7" stroke-linecap="round"/>
  <path d="M809.8,304.9 C809.2,269.7 808.8,236.3 810.1,200.6" fill="none" stroke="#1e1e1e" stroke-width="1.7" stroke-linecap="round"/>
  <path d="M810.0,304.2 C809.7,271.3 810.0,235.1 809.9,199.5" fill="none" stroke="#1e1e1e" stroke-width="1.7" stroke-linecap="round"/>
  <text x="940.0" y="227.0" font-family="Virgil, Virgil GS, Excalifont, Comic Sans MS, Bradley Hand, cursive" font-size="18" fill="#1e1e1e" text-anchor="middle" font-weight="bold">MinIO / S3</text>
  <text x="940.0" y="251.0" font-family="Virgil, Virgil GS, Excalifont, Comic Sans MS, Bradley Hand, cursive" font-size="14" fill="#5c5c5c" text-anchor="middle" font-weight="normal">Delta tables, images,</text>
  <text x="940.0" y="272.0" font-family="Virgil, Virgil GS, Excalifont, Comic Sans MS, Bradley Hand, cursive" font-size="14" fill="#5c5c5c" text-anchor="middle" font-weight="normal">screenshots</text>
  <rect x="810.0" y="340.0" width="260.0" height="105.0" rx="6" fill="#ffe3e3"/>
  <path d="M810.4,340.1 C895.1,341.0 982.3,339.9 1069.7,340.0" fill="none" stroke="#1e1e1e" stroke-width="1.7" stroke-linecap="round"/>
  <path d="M809.6,339.6 C896.8,340.9 982.1,340.2 1070.4,340.0" fill="none" stroke="#1e1e1e" stroke-width="1.7" stroke-linecap="round"/>
  <path d="M1070.2,340.0 C1070.2,375.8 1071.3,409.8 1070.0,445.3" fill="none" stroke="#1e1e1e" stroke-width="1.7" stroke-linecap="round"/>
  <path d="M1070.3,340.6 C1069.8,375.1 1069.9,411.4 1070.7,444.6" fill="none" stroke="#1e1e1e" stroke-width="1.7" stroke-linecap="round"/>
  <path d="M1069.4,444.9 C983.5,446.4 897.8,443.8 809.3,444.6" fill="none" stroke="#1e1e1e" stroke-width="1.7" stroke-linecap="round"/>
  <path d="M1069.4,445.3 C982.0,445.5 897.6,446.3 810.3,444.4" fill="none" stroke="#1e1e1e" stroke-width="1.7" stroke-linecap="round"/>
  <path d="M809.8,445.0 C811.2,411.5 809.1,376.4 810.8,340.5" fill="none" stroke="#1e1e1e" stroke-width="1.7" stroke-linecap="round"/>
  <path d="M809.5,444.7 C808.9,409.8 810.0,374.5 810.4,339.2" fill="none" stroke="#1e1e1e" stroke-width="1.7" stroke-linecap="round"/>
  <text x="940.0" y="367.0" font-family="Virgil, Virgil GS, Excalifont, Comic Sans MS, Bradley Hand, cursive" font-size="18" fill="#1e1e1e" text-anchor="middle" font-weight="bold">Redis</text>
  <text x="940.0" y="391.0" font-family="Virgil, Virgil GS, Excalifont, Comic Sans MS, Bradley Hand, cursive" font-size="14" fill="#5c5c5c" text-anchor="middle" font-weight="normal">cache, and the Celery</text>
  <text x="940.0" y="412.0" font-family="Virgil, Virgil GS, Excalifont, Comic Sans MS, Bradley Hand, cursive" font-size="14" fill="#5c5c5c" text-anchor="middle" font-weight="normal">broker</text>
  <rect x="410.0" y="470.0" width="250.0" height="125.0" rx="6" fill="#ffe8cc"/>
  <path d="M410.2,470.0 C493.5,469.8 575.1,469.5 659.3,470.8" fill="none" stroke="#1e1e1e" stroke-width="1.7" stroke-linecap="round"/>
  <path d="M409.3,470.4 C494.3,471.5 575.4,469.2 659.6,469.4" fill="none" stroke="#1e1e1e" stroke-width="1.7" stroke-linecap="round"/>
  <path d="M659.4,470.7 C659.8,513.0 661.0,552.6 660.1,595.3" fill="none" stroke="#1e1e1e" stroke-width="1.7" stroke-linecap="round"/>
  <path d="M659.3,470.7 C658.7,510.3 660.6,553.1 660.2,595.5" fill="none" stroke="#1e1e1e" stroke-width="1.7" stroke-linecap="round"/>
  <path d="M659.9,594.7 C575.3,596.1 491.9,596.2 410.1,595.7" fill="none" stroke="#1e1e1e" stroke-width="1.7" stroke-linecap="round"/>
  <path d="M659.4,594.5 C575.9,593.8 493.4,594.2 409.3,594.5" fill="none" stroke="#1e1e1e" stroke-width="1.7" stroke-linecap="round"/>
  <path d="M410.0,594.5 C409.4,552.7 410.8,511.0 409.8,469.2" fill="none" stroke="#1e1e1e" stroke-width="1.7" stroke-linecap="round"/>
  <path d="M409.5,595.0 C409.2,551.8 410.7,511.8 410.7,469.4" fill="none" stroke="#1e1e1e" stroke-width="1.7" stroke-linecap="round"/>
  <text x="535.0" y="497.0" font-family="Virgil, Virgil GS, Excalifont, Comic Sans MS, Bradley Hand, cursive" font-size="18" fill="#1e1e1e" text-anchor="middle" font-weight="bold">Celery workers</text>
  <text x="535.0" y="521.0" font-family="Virgil, Virgil GS, Excalifont, Comic Sans MS, Bradley Hand, cursive" font-size="14" fill="#5c5c5c" text-anchor="middle" font-weight="normal">ingestion, screenshots,</text>
  <text x="535.0" y="542.0" font-family="Virgil, Virgil GS, Excalifont, Comic Sans MS, Bradley Hand, cursive" font-size="14" fill="#5c5c5c" text-anchor="middle" font-weight="normal">pre-rendering</text>
  <path d="M309.8,240.0 C344.6,239.7 376.6,241.3 410.4,241.0" fill="none" stroke="#1e1e1e" stroke-width="1.7" stroke-linecap="round"/>
  <path d="M309.8,239.7 C342.7,241.3 377.5,240.5 409.1,239.3" fill="none" stroke="#1e1e1e" stroke-width="1.7" stroke-linecap="round"/>
  <path d="M409.6,240.3 C405.0,238.3 401.3,234.9 398.0,233.6" fill="none" stroke="#1e1e1e" stroke-width="1.7" stroke-linecap="round"/>
  <path d="M409.7,239.9 C405.4,241.7 401.3,244.3 397.4,247.0" fill="none" stroke="#1e1e1e" stroke-width="1.7" stroke-linecap="round"/>
  <text x="360.0" y="224.0" font-family="Virgil, Virgil GS, Excalifont, Comic Sans MS, Bradley Hand, cursive" font-size="14" fill="#5c5c5c" text-anchor="middle" font-weight="normal">REST</text>
  <path d="M409.6,271.7 C378.6,272.2 342.3,273.9 309.0,271.8" fill="none" stroke="#1e1e1e" stroke-width="1.7" stroke-linecap="round" stroke-dasharray="9 7"/>
  <path d="M409.0,271.5 C376.6,272.0 342.1,272.0 309.2,271.8" fill="none" stroke="#1e1e1e" stroke-width="1.7" stroke-linecap="round" stroke-dasharray="9 7"/>
  <path d="M310.1,272.0 C313.2,273.2 317.8,275.8 322.6,278.7" fill="none" stroke="#1e1e1e" stroke-width="1.7" stroke-linecap="round"/>
  <path d="M310.5,271.6 C314.6,270.6 318.0,267.3 322.6,265.6" fill="none" stroke="#1e1e1e" stroke-width="1.7" stroke-linecap="round"/>
  <text x="360.0" y="300.0" font-family="Virgil, Virgil GS, Excalifont, Comic Sans MS, Bradley Hand, cursive" font-size="14" fill="#5c5c5c" text-anchor="middle" font-weight="normal">WebSocket</text>
  <path d="M660.5,218.6 C708.2,190.0 761.6,159.8 809.3,130.0" fill="none" stroke="#1e1e1e" stroke-width="1.7" stroke-linecap="round"/>
  <path d="M660.2,218.8 C710.0,190.0 761.2,160.6 810.4,130.4" fill="none" stroke="#1e1e1e" stroke-width="1.7" stroke-linecap="round"/>
  <path d="M809.6,130.3 C804.8,129.3 799.9,130.1 796.1,130.7" fill="none" stroke="#1e1e1e" stroke-width="1.7" stroke-linecap="round"/>
  <path d="M810.3,130.2 C807.8,134.3 805.1,137.0 802.7,142.0" fill="none" stroke="#1e1e1e" stroke-width="1.7" stroke-linecap="round"/>
  <path d="M659.1,247.5 C710.6,246.9 760.9,248.3 810.5,249.4" fill="none" stroke="#1e1e1e" stroke-width="1.7" stroke-linecap="round"/>
  <path d="M660.0,248.4 C711.0,250.6 760.0,248.9 810.5,250.2" fill="none" stroke="#1e1e1e" stroke-width="1.7" stroke-linecap="round"/>
  <path d="M810.2,249.8 C806.2,246.9 801.1,245.0 797.8,242.8" fill="none" stroke="#1e1e1e" stroke-width="1.7" stroke-linecap="round"/>
  <path d="M810.2,249.8 C805.0,251.7 802.0,254.7 797.6,256.4" fill="none" stroke="#1e1e1e" stroke-width="1.7" stroke-linecap="round"/>
  <path d="M661.0,278.9 C709.9,308.8 761.6,341.5 809.0,374.9" fill="none" stroke="#1e1e1e" stroke-width="1.7" stroke-linecap="round"/>
  <path d="M659.4,278.9 C711.3,312.2 759.8,341.7 809.4,375.2" fill="none" stroke="#1e1e1e" stroke-width="1.7" stroke-linecap="round"/>
  <path d="M810.3,375.0 C807.0,371.0 806.4,366.1 803.6,363.0" fill="none" stroke="#1e1e1e" stroke-width="1.7" stroke-linecap="round"/>
  <path d="M809.5,375.0 C804.8,375.4 800.7,373.3 796.0,373.6" fill="none" stroke="#1e1e1e" stroke-width="1.7" stroke-linecap="round"/>
  <path d="M534.0,310.5 C533.6,362.7 534.3,418.0 535.7,469.2" fill="none" stroke="#1e1e1e" stroke-width="1.7" stroke-linecap="round"/>
  <path d="M534.7,309.8 C536.7,364.2 536.6,415.8 536.0,470.2" fill="none" stroke="#1e1e1e" stroke-width="1.7" stroke-linecap="round"/>
  <path d="M534.6,470.3 C536.9,465.7 538.9,460.9 541.4,458.1" fill="none" stroke="#1e1e1e" stroke-width="1.7" stroke-linecap="round"/>
  <path d="M534.9,470.5 C532.3,465.4 530.6,461.1 528.8,458.0" fill="none" stroke="#1e1e1e" stroke-width="1.7" stroke-linecap="round"/>
  <text x="547.0" y="400.0" font-family="Virgil, Virgil GS, Excalifont, Comic Sans MS, Bradley Hand, cursive" font-size="14" fill="#5c5c5c" text-anchor="start" font-weight="normal">dispatch</text>
  <path d="M660.4,519.1 C710.5,493.3 761.8,463.5 810.5,434.9" fill="none" stroke="#1e1e1e" stroke-width="1.7" stroke-linecap="round"/>
  <path d="M660.9,519.3 C711.0,492.2 759.1,461.5 809.9,434.7" fill="none" stroke="#1e1e1e" stroke-width="1.7" stroke-linecap="round"/>
  <path d="M810.2,434.8 C804.9,435.6 801.6,434.8 796.1,435.3" fill="none" stroke="#1e1e1e" stroke-width="1.7" stroke-linecap="round"/>
  <path d="M810.0,434.7 C806.8,438.3 804.4,443.7 802.9,447.3" fill="none" stroke="#1e1e1e" stroke-width="1.7" stroke-linecap="round"/>
  <text x="760.0" y="500.0" font-family="Virgil, Virgil GS, Excalifont, Comic Sans MS, Bradley Hand, cursive" font-size="14" fill="#5c5c5c" text-anchor="middle" font-weight="normal">queue</text>
  <text x="60.0" y="628.0" font-family="Virgil, Virgil GS, Excalifont, Comic Sans MS, Bradley Hand, cursive" font-size="15" fill="#5c5c5c" text-anchor="start" font-weight="normal">The viewer only ever talks to FastAPI. Nothing else is reachable from the browser.</text>
</svg>
