<svg xmlns="http://www.w3.org/2000/svg" width="1200" height="800" viewBox="0 0 1200 800">
  <rect width="1200" height="800" fill="#ffffff"/>
  <text x="46.0" y="52.0" font-family="Virgil, Virgil GS, Excalifont, Comic Sans MS, Bradley Hand, cursive" font-size="25" fill="#1e1e1e" text-anchor="start" font-weight="normal">From configuration to data</text>
  <text x="46.0" y="78.0" font-family="Virgil, Virgil GS, Excalifont, Comic Sans MS, Bradley Hand, cursive" font-size="15" fill="#5c5c5c" text-anchor="start" font-weight="normal">how the output of a run becomes one table a dashboard can read</text>
  <rect x="70.0" y="170.0" width="300.0" height="140.0" rx="6" fill="#ebfbee"/>
  <path d="M70.1,169.8 C169.4,168.9 270.5,168.6 369.3,170.0" fill="none" stroke="#1e1e1e" stroke-width="1.7" stroke-linecap="round"/>
  <path d="M69.9,170.5 C168.5,169.8 268.6,168.7 369.4,169.6" fill="none" stroke="#1e1e1e" stroke-width="1.7" stroke-linecap="round"/>
  <path d="M370.8,169.3 C370.4,218.1 370.2,263.0 370.6,309.7" fill="none" stroke="#1e1e1e" stroke-width="1.7" stroke-linecap="round"/>
  <path d="M369.5,170.1 C368.9,215.4 369.4,264.3 370.2,309.8" fill="none" stroke="#1e1e1e" stroke-width="1.7" stroke-linecap="round"/>
  <path d="M370.3,309.9 C270.2,308.6 168.6,309.1 69.7,310.1" fill="none" stroke="#1e1e1e" stroke-width="1.7" stroke-linecap="round"/>
  <path d="M369.6,310.1 C269.9,309.4 170.9,310.6 70.0,310.6" fill="none" stroke="#1e1e1e" stroke-width="1.7" stroke-linecap="round"/>
  <path d="M69.9,310.4 C70.7,262.7 71.5,215.4 69.4,170.0" fill="none" stroke="#1e1e1e" stroke-width="1.7" stroke-linecap="round"/>
  <path d="M70.6,309.7 C68.5,263.9 70.8,216.9 70.3,170.2" fill="none" stroke="#1e1e1e" stroke-width="1.7" stroke-linecap="round"/>
  <text x="220.0" y="197.0" font-family="Virgil, Virgil GS, Excalifont, Comic Sans MS, Bradley Hand, cursive" font-size="18" fill="#1e1e1e" text-anchor="middle" font-weight="bold">Run</text>
  <text x="220.0" y="221.0" font-family="Virgil, Virgil GS, Excalifont, Comic Sans MS, Bradley Hand, cursive" font-size="14" fill="#5c5c5c" text-anchor="middle" font-weight="normal">one execution of the workflow:</text>
  <text x="220.0" y="242.0" font-family="Virgil, Virgil GS, Excalifont, Comic Sans MS, Bradley Hand, cursive" font-size="14" fill="#5c5c5c" text-anchor="middle" font-weight="normal">an output folder, one or</text>
  <text x="220.0" y="263.0" font-family="Virgil, Virgil GS, Excalifont, Comic Sans MS, Bradley Hand, cursive" font-size="14" fill="#5c5c5c" text-anchor="middle" font-weight="normal">more samples processed</text>
  <rect x="518.0" y="152.0" width="270.0" height="140.0" rx="6" fill="#fff9db"/>
  <path d="M518.0,152.3 C608.3,151.9 699.1,153.4 787.3,152.3" fill="none" stroke="#adb5bd" stroke-width="1.7" stroke-linecap="round"/>
  <path d="M517.8,152.3 C608.5,153.6 699.0,151.3 787.2,151.9" fill="none" stroke="#adb5bd" stroke-width="1.7" stroke-linecap="round"/>
  <path d="M787.4,151.6 C786.9,197.4 786.6,246.2 787.8,292.6" fill="none" stroke="#adb5bd" stroke-width="1.7" stroke-linecap="round"/>
  <path d="M788.5,152.6 C786.7,198.5 788.2,246.6 787.6,291.9" fill="none" stroke="#adb5bd" stroke-width="1.7" stroke-linecap="round"/>
  <path d="M787.5,291.6 C697.5,293.2 609.5,290.9 517.6,292.0" fill="none" stroke="#adb5bd" stroke-width="1.7" stroke-linecap="round"/>
  <path d="M787.8,292.1 C698.3,291.2 606.4,291.7 518.7,292.3" fill="none" stroke="#adb5bd" stroke-width="1.7" stroke-linecap="round"/>
  <path d="M518.6,292.4 C518.0,245.7 518.6,197.2 518.6,152.5" fill="none" stroke="#adb5bd" stroke-width="1.7" stroke-linecap="round"/>
  <path d="M517.3,291.3 C517.7,245.0 516.7,199.1 517.5,151.5" fill="none" stroke="#adb5bd" stroke-width="1.7" stroke-linecap="round"/>
  <rect x="509.0" y="161.0" width="270.0" height="140.0" rx="6" fill="#fff9db"/>
  <path d="M508.4,160.8 C598.5,159.6 687.4,159.9 778.2,161.6" fill="none" stroke="#adb5bd" stroke-width="1.7" stroke-linecap="round"/>
  <path d="M508.8,160.4 C599.4,159.9 688.2,160.5 779.6,161.8" fill="none" stroke="#adb5bd" stroke-width="1.7" stroke-linecap="round"/>
  <path d="M778.7,160.6 C778.9,207.6 777.7,253.1 779.5,300.5" fill="none" stroke="#adb5bd" stroke-width="1.7" stroke-linecap="round"/>
  <path d="M779.1,160.2 C777.5,209.1 779.1,253.2 779.0,301.8" fill="none" stroke="#adb5bd" stroke-width="1.7" stroke-linecap="round"/>
  <path d="M778.5,301.4 C690.2,301.6 598.2,300.6 509.1,301.4" fill="none" stroke="#adb5bd" stroke-width="1.7" stroke-linecap="round"/>
  <path d="M779.6,301.5 C688.5,300.1 600.0,302.6 509.5,301.4" fill="none" stroke="#adb5bd" stroke-width="1.7" stroke-linecap="round"/>
  <path d="M508.2,300.6 C508.1,254.4 508.5,206.2 508.6,161.3" fill="none" stroke="#adb5bd" stroke-width="1.7" stroke-linecap="round"/>
  <path d="M509.7,300.8 C510.5,254.2 510.4,209.2 508.6,160.6" fill="none" stroke="#adb5bd" stroke-width="1.7" stroke-linecap="round"/>
  <rect x="500.0" y="170.0" width="270.0" height="140.0" rx="6" fill="#fff9db"/>
  <path d="M500.5,170.0 C589.0,169.1 680.4,171.3 770.2,170.5" fill="none" stroke="#1e1e1e" stroke-width="1.7" stroke-linecap="round"/>
  <path d="M500.4,170.0 C588.7,170.5 681.3,170.9 769.5,170.5" fill="none" stroke="#1e1e1e" stroke-width="1.7" stroke-linecap="round"/>
  <path d="M769.8,170.7 C769.5,217.6 771.5,263.0 770.4,309.5" fill="none" stroke="#1e1e1e" stroke-width="1.7" stroke-linecap="round"/>
  <path d="M769.4,170.5 C768.8,215.6 771.3,264.3 770.8,310.3" fill="none" stroke="#1e1e1e" stroke-width="1.7" stroke-linecap="round"/>
  <path d="M770.8,310.2 C679.5,310.2 588.8,308.4 500.0,310.7" fill="none" stroke="#1e1e1e" stroke-width="1.7" stroke-linecap="round"/>
  <path d="M769.6,309.7 C679.8,311.2 591.0,309.1 499.6,310.1" fill="none" stroke="#1e1e1e" stroke-width="1.7" stroke-linecap="round"/>
  <path d="M499.8,309.9 C499.2,263.1 498.8,218.0 500.1,170.6" fill="none" stroke="#1e1e1e" stroke-width="1.7" stroke-linecap="round"/>
  <path d="M500.0,309.2 C499.7,264.7 500.0,216.8 499.9,169.5" fill="none" stroke="#1e1e1e" stroke-width="1.7" stroke-linecap="round"/>
  <text x="635.0" y="197.0" font-family="Virgil, Virgil GS, Excalifont, Comic Sans MS, Bradley Hand, cursive" font-size="18" fill="#1e1e1e" text-anchor="middle" font-weight="bold">Files</text>
  <text x="635.0" y="221.0" font-family="Virgil, Virgil GS, Excalifont, Comic Sans MS, Bradley Hand, cursive" font-size="14" fill="#5c5c5c" text-anchor="middle" font-weight="normal">one record per file:</text>
  <text x="635.0" y="242.0" font-family="Virgil, Virgil GS, Excalifont, Comic Sans MS, Bradley Hand, cursive" font-size="14" fill="#5c5c5c" text-anchor="middle" font-weight="normal">location, hash, size</text>
  <path d="M370.5,235.1 C408.0,236.2 448.7,234.9 489.7,235.0" fill="none" stroke="#1e1e1e" stroke-width="1.7" stroke-linecap="round"/>
  <path d="M369.5,234.6 C410.2,236.1 448.4,235.2 490.5,235.0" fill="none" stroke="#1e1e1e" stroke-width="1.7" stroke-linecap="round"/>
  <path d="M490.1,235.0 C486.0,233.3 482.6,230.5 477.7,228.6" fill="none" stroke="#1e1e1e" stroke-width="1.7" stroke-linecap="round"/>
  <path d="M490.2,235.4 C485.8,237.3 481.7,240.3 478.1,241.3" fill="none" stroke="#1e1e1e" stroke-width="1.7" stroke-linecap="round"/>
  <text x="430.0" y="220.0" font-family="Virgil, Virgil GS, Excalifont, Comic Sans MS, Bradley Hand, cursive" font-size="14" fill="#5c5c5c" text-anchor="middle" font-weight="normal">scan</text>
  <rect x="460.0" y="420.0" width="310.0" height="145.0" rx="6" fill="#ffe8cc"/>
  <path d="M459.4,419.9 C563.5,421.4 667.8,418.8 769.3,419.6" fill="none" stroke="#1e1e1e" stroke-width="1.7" stroke-linecap="round"/>
  <path d="M459.4,420.3 C562.0,420.5 667.6,421.3 770.3,419.4" fill="none" stroke="#1e1e1e" stroke-width="1.7" stroke-linecap="round"/>
  <path d="M769.8,420.0 C771.2,469.8 769.1,518.1 770.8,565.5" fill="none" stroke="#1e1e1e" stroke-width="1.7" stroke-linecap="round"/>
  <path d="M769.5,419.7 C768.9,468.1 770.0,516.2 770.4,564.2" fill="none" stroke="#1e1e1e" stroke-width="1.7" stroke-linecap="round"/>
  <path d="M770.2,565.0 C666.8,564.8 561.8,564.5 459.3,565.8" fill="none" stroke="#1e1e1e" stroke-width="1.7" stroke-linecap="round"/>
  <path d="M769.3,565.4 C667.6,566.5 562.1,564.2 459.6,564.4" fill="none" stroke="#1e1e1e" stroke-width="1.7" stroke-linecap="round"/>
  <path d="M459.4,565.7 C459.8,518.0 461.0,467.6 460.1,420.3" fill="none" stroke="#1e1e1e" stroke-width="1.7" stroke-linecap="round"/>
  <path d="M459.3,565.7 C458.7,515.3 460.6,468.1 460.2,420.5" fill="none" stroke="#1e1e1e" stroke-width="1.7" stroke-linecap="round"/>
  <text x="615.0" y="447.0" font-family="Virgil, Virgil GS, Excalifont, Comic Sans MS, Bradley Hand, cursive" font-size="18" fill="#1e1e1e" text-anchor="middle" font-weight="bold">DataCollection</text>
  <text x="615.0" y="471.0" font-family="Virgil, Virgil GS, Excalifont, Comic Sans MS, Bradley Hand, cursive" font-size="14" fill="#5c5c5c" text-anchor="middle" font-weight="normal">every file of one type,</text>
  <text x="615.0" y="492.0" font-family="Virgil, Virgil GS, Excalifont, Comic Sans MS, Bradley Hand, cursive" font-size="14" fill="#5c5c5c" text-anchor="middle" font-weight="normal">across every run,</text>
  <text x="615.0" y="513.0" font-family="Virgil, Virgil GS, Excalifont, Comic Sans MS, Bradley Hand, cursive" font-size="14" fill="#5c5c5c" text-anchor="middle" font-weight="normal">as a single table</text>
  <path d="M614.9,319.7 C613.3,354.8 613.3,388.1 615.1,420.9" fill="none" stroke="#1e1e1e" stroke-width="1.7" stroke-linecap="round"/>
  <path d="M614.2,319.3 C614.1,351.9 615.1,385.6 614.1,419.4" fill="none" stroke="#1e1e1e" stroke-width="1.7" stroke-linecap="round"/>
  <path d="M615.0,419.7 C616.8,415.5 619.9,411.3 621.4,407.2" fill="none" stroke="#1e1e1e" stroke-width="1.7" stroke-linecap="round"/>
  <path d="M614.7,420.0 C612.3,414.9 611.1,411.9 608.9,407.2" fill="none" stroke="#1e1e1e" stroke-width="1.7" stroke-linecap="round"/>
  <text x="627.0" y="380.0" font-family="Virgil, Virgil GS, Excalifont, Comic Sans MS, Bradley Hand, cursive" font-size="14" fill="#5c5c5c" text-anchor="start" font-weight="normal">aggregate</text>
  <rect x="870.0" y="420.0" width="290.0" height="145.0" rx="6" fill="#f1f3f5"/>
  <path d="M869.8,420.0 C967.7,419.8 1063.3,421.1 1160.3,420.8" fill="none" stroke="#1e1e1e" stroke-width="1.7" stroke-linecap="round"/>
  <path d="M869.8,419.8 C966.2,421.1 1064.0,420.4 1159.3,419.4" fill="none" stroke="#1e1e1e" stroke-width="1.7" stroke-linecap="round"/>
  <path d="M1159.3,420.5 C1158.6,469.1 1159.2,515.6 1160.6,565.3" fill="none" stroke="#1e1e1e" stroke-width="1.7" stroke-linecap="round"/>
  <path d="M1159.5,419.9 C1159.3,467.5 1159.3,516.5 1159.6,565.7" fill="none" stroke="#1e1e1e" stroke-width="1.7" stroke-linecap="round"/>
  <path d="M1159.7,564.8 C1064.8,565.2 965.8,566.5 869.2,564.8" fill="none" stroke="#1e1e1e" stroke-width="1.7" stroke-linecap="round"/>
  <path d="M1159.2,564.6 C1063.3,565.0 965.7,565.0 869.3,564.8" fill="none" stroke="#1e1e1e" stroke-width="1.7" stroke-linecap="round"/>
  <path d="M870.1,565.0 C868.5,515.1 869.4,467.5 870.4,420.3" fill="none" stroke="#1e1e1e" stroke-width="1.7" stroke-linecap="round"/>
  <path d="M870.8,564.4 C870.7,517.9 869.6,467.8 870.4,420.2" fill="none" stroke="#1e1e1e" stroke-width="1.7" stroke-linecap="round"/>
  <text x="1015.0" y="447.0" font-family="Virgil, Virgil GS, Excalifont, Comic Sans MS, Bradley Hand, cursive" font-size="18" fill="#1e1e1e" text-anchor="middle" font-weight="bold">deltatables entry</text>
  <text x="1015.0" y="471.0" font-family="Virgil, Virgil GS, Excalifont, Comic Sans MS, Bradley Hand, cursive" font-size="14" fill="#5c5c5c" text-anchor="middle" font-weight="normal">where that table is,</text>
  <text x="1015.0" y="492.0" font-family="Virgil, Virgil GS, Excalifont, Comic Sans MS, Bradley Hand, cursive" font-size="14" fill="#5c5c5c" text-anchor="middle" font-weight="normal">plus the schema of</text>
  <text x="1015.0" y="513.0" font-family="Virgil, Virgil GS, Excalifont, Comic Sans MS, Bradley Hand, cursive" font-size="14" fill="#5c5c5c" text-anchor="middle" font-weight="normal">every aggregation run</text>
  <path d="M770.5,490.6 C801.5,491.3 838.2,490.5 869.3,490.0" fill="none" stroke="#1e1e1e" stroke-width="1.7" stroke-linecap="round"/>
  <path d="M770.2,490.8 C803.4,491.3 837.9,491.3 870.4,490.4" fill="none" stroke="#1e1e1e" stroke-width="1.7" stroke-linecap="round"/>
  <path d="M869.6,490.3 C865.3,486.9 861.0,485.3 857.7,483.6" fill="none" stroke="#1e1e1e" stroke-width="1.7" stroke-linecap="round"/>
  <path d="M870.3,490.2 C866.1,492.6 861.7,493.4 857.6,496.6" fill="none" stroke="#1e1e1e" stroke-width="1.7" stroke-linecap="round"/>
  <text x="820.0" y="475.0" font-family="Virgil, Virgil GS, Excalifont, Comic Sans MS, Bradley Hand, cursive" font-size="14" fill="#5c5c5c" text-anchor="middle" font-weight="normal">1:1</text>
  <rect x="870.0" y="645.0" width="290.0" height="110.0" rx="6" fill="#e7f5ff"/>
  <path d="M869.3,644.6 C967.2,643.6 1064.1,644.2 1160.4,644.5" fill="none" stroke="#1e1e1e" stroke-width="1.7" stroke-linecap="round"/>
  <path d="M870.0,645.3 C967.4,646.5 1063.3,644.6 1160.4,645.2" fill="none" stroke="#1e1e1e" stroke-width="1.7" stroke-linecap="round"/>
  <path d="M1160.4,644.7 C1160.5,680.3 1158.9,717.5 1160.1,754.2" fill="none" stroke="#1e1e1e" stroke-width="1.7" stroke-linecap="round"/>
  <path d="M1160.3,644.7 C1158.6,680.9 1160.6,718.9 1160.0,754.9" fill="none" stroke="#1e1e1e" stroke-width="1.7" stroke-linecap="round"/>
  <path d="M1160.8,755.7 C1063.2,753.8 967.9,754.0 869.2,754.9" fill="none" stroke="#1e1e1e" stroke-width="1.7" stroke-linecap="round"/>
  <path d="M1159.5,755.7 C1064.4,756.5 966.5,754.3 869.5,755.1" fill="none" stroke="#1e1e1e" stroke-width="1.7" stroke-linecap="round"/>
  <path d="M870.5,755.0 C868.9,718.4 871.4,680.5 870.6,645.3" fill="none" stroke="#1e1e1e" stroke-width="1.7" stroke-linecap="round"/>
  <path d="M869.2,755.0 C869.1,719.6 870.0,680.1 869.9,644.7" fill="none" stroke="#1e1e1e" stroke-width="1.7" stroke-linecap="round"/>
  <text x="1015.0" y="672.0" font-family="Virgil, Virgil GS, Excalifont, Comic Sans MS, Bradley Hand, cursive" font-size="18" fill="#1e1e1e" text-anchor="middle" font-weight="bold">Delta table</text>
  <text x="1015.0" y="696.0" font-family="Virgil, Virgil GS, Excalifont, Comic Sans MS, Bradley Hand, cursive" font-size="14" fill="#5c5c5c" text-anchor="middle" font-weight="normal">the rows themselves, on S3,</text>
  <text x="1015.0" y="717.0" font-family="Virgil, Virgil GS, Excalifont, Comic Sans MS, Bradley Hand, cursive" font-size="14" fill="#5c5c5c" text-anchor="middle" font-weight="normal">in Delta Lake format</text>
  <path d="M1014.0,565.5 C1013.6,591.0 1014.3,619.7 1015.7,644.2" fill="none" stroke="#1e1e1e" stroke-width="1.7" stroke-linecap="round"/>
  <path d="M1014.7,564.8 C1016.7,592.5 1016.6,617.5 1016.0,645.2" fill="none" stroke="#1e1e1e" stroke-width="1.7" stroke-linecap="round"/>
  <path d="M1014.6,645.3 C1016.9,640.7 1018.9,635.9 1021.4,633.1" fill="none" stroke="#1e1e1e" stroke-width="1.7" stroke-linecap="round"/>
  <path d="M1014.9,645.5 C1012.3,640.4 1010.6,636.1 1008.8,633.0" fill="none" stroke="#1e1e1e" stroke-width="1.7" stroke-linecap="round"/>
  <text x="70.0" y="440.0" font-family="Virgil, Virgil GS, Excalifont, Comic Sans MS, Bradley Hand, cursive" font-size="15" fill="#5c5c5c" text-anchor="start" font-weight="normal">A data collection says what a table is.</text>
  <text x="70.0" y="464.0" font-family="Virgil, Virgil GS, Excalifont, Comic Sans MS, Bradley Hand, cursive" font-size="15" fill="#5c5c5c" text-anchor="start" font-weight="normal">It never says where it is: delta_location</text>
  <text x="70.0" y="488.0" font-family="Virgil, Virgil GS, Excalifont, Comic Sans MS, Bradley Hand, cursive" font-size="15" fill="#5c5c5c" text-anchor="start" font-weight="normal">and last_aggregation are joined in from</text>
  <text x="70.0" y="512.0" font-family="Virgil, Virgil GS, Excalifont, Comic Sans MS, Bradley Hand, cursive" font-size="15" fill="#5c5c5c" text-anchor="start" font-weight="normal">the deltatables entry when the API serves</text>
  <text x="70.0" y="536.0" font-family="Virgil, Virgil GS, Excalifont, Comic Sans MS, Bradley Hand, cursive" font-size="15" fill="#5c5c5c" text-anchor="start" font-weight="normal">the project, so they show up in responses</text>
  <text x="70.0" y="560.0" font-family="Virgil, Virgil GS, Excalifont, Comic Sans MS, Bradley Hand, cursive" font-size="15" fill="#5c5c5c" text-anchor="start" font-weight="normal">and nowhere in the stored configuration.</text>
</svg>
